<svg xmlns="http://www.w3.org/2000/svg" width="67" height="75.5" viewBox="0 0 67 75.5">
  <g id="Group_1" data-name="Group 1" transform="translate(-100.5 -94)">
    <path id="Path_6" data-name="Path 6" d="M48.483,6.3c.542.412,1.341,1.09,2.19,1.884a31.147,31.147,0,0,1,2.559,2.748c.393.472.774.961,1.317,1.713A30.084,30.084,0,0,1,30,60c-.166,0-.331,0-.812-.011A29.957,29.957,0,0,1,3.475,16.038,30.737,30.737,0,0,1,12.128,5.947" transform="translate(104 106)" fill="none" stroke="#1a1718" stroke-linecap="round" stroke-width="7"/>
    <path id="Path_3" data-name="Path 3" d="M110.5,105.4" fill="none" stroke="#707070" stroke-width="1"/>
    <g id="Rectangle_1" data-name="Rectangle 1" transform="translate(129 94)" fill="#1a1718" stroke="#1a1718" stroke-width="1">
      <rect width="10" height="41" rx="5" stroke="none"/>
      <rect x="0.5" y="0.5" width="9" height="40" rx="4.5" fill="none"/>
    </g>
  </g>
</svg>
